<svg id="Capa_1" data-name="Capa 1" xmlns="http://www.w3.org/2000/svg" viewBox="0 0 512 512"><defs><style>.cls-1{fill:#fff;}.cls-2{fill:#f0f0f7;}.cls-3{fill:#2f3380;}.cls-4{fill:#e2e2ed;}.cls-5{fill:#999bc1;}.cls-6{fill:#6568a1;}.cls-7{fill:#a2f4c1;}.cls-8{fill:#ffe07d;}.cls-9{fill:#e278b1;}.cls-10{fill:#ffc250;}.cls-11{fill:#ffd064;}</style></defs><ellipse class="cls-1" cx="256.92" cy="259.57" rx="250.67" ry="138.3" transform="translate(-65.84 88.65) rotate(-17.39)"/><path class="cls-2" d="M104.93,356.1V180.22H421.52V356.1a17.6,17.6,0,0,1-17.59,17.59H122.52a17.59,17.59,0,0,1-17.59-17.59Z"/><path class="cls-3" d="M126.54,317.82V307.09a8.71,8.71,0,0,1,8.71-8.71H212.3a8.71,8.71,0,0,1,8.71,8.71v10.73a8.71,8.71,0,0,1-8.71,8.71H135.25A8.71,8.71,0,0,1,126.54,317.82Z"/><path class="cls-1" d="M229.8,223.23H133.07a6.53,6.53,0,1,1,0-13.06H229.8a6.53,6.53,0,0,1,0,13.06Z"/><path class="cls-1" d="M256.19,251.37H133.07a6.53,6.53,0,1,1,0-13.06H256.19a6.53,6.53,0,1,1,0,13.06Z"/><path class="cls-1" d="M256.19,279.26H133.07a6.53,6.53,0,1,1,0-13.06H256.19a6.53,6.53,0,1,1,0,13.06Z"/><path class="cls-4" d="M401.29,180.22V356.1a17.59,17.59,0,0,1-17.59,17.59h20.23a17.6,17.6,0,0,0,17.59-17.59V180.22Z"/><path class="cls-5" d="M104.93,180.22V143.28a17.59,17.59,0,0,1,17.59-17.59H403.93a17.6,17.6,0,0,1,17.59,17.59v36.94Z"/><path class="cls-6" d="M403.93,125.69H383.7a17.59,17.59,0,0,1,17.59,17.59v36.94h20.23V143.28A17.6,17.6,0,0,0,403.93,125.69Z"/><circle class="cls-7" cx="386.34" cy="152.96" r="7.04"/><circle class="cls-8" cx="358.2" cy="152.96" r="7.04"/><circle class="cls-9" cx="330.06" cy="152.96" r="7.04"/><path class="cls-8" d="M379.37,218.62,278.43,248.9a4.52,4.52,0,0,0-.38,8.52l45.53,18.21a4.52,4.52,0,0,1,2.52,2.52l18.21,45.53a4.52,4.52,0,0,0,8.53-.38l30.28-100.93a3,3,0,0,0-3.75-3.75Z"/><path class="cls-10" d="M325.38,276.35l-24.54-9.81-6,35.11a4.52,4.52,0,0,0,5.21,5.21l35.12-6Z"/><path class="cls-11" d="M383.12,222.37a3,3,0,0,0-3.75-3.75l-6.06,1.81-53.64,53.64,3.91,1.56a4.52,4.52,0,0,1,2.52,2.52l1.56,3.91,53.64-53.64Z"/></svg>