<svg id="Livello_1" data-name="Livello 1" xmlns="http://www.w3.org/2000/svg" viewBox="0 0 90 90"><defs><style>.cls-1{fill:#fff;}</style></defs><path class="cls-1" d="M45,40.85a7.33,7.33,0,1,0-7.15-7.33A7.25,7.25,0,0,0,45,40.85Z"/><path class="cls-1" d="M51.61,41.15a9.73,9.73,0,0,1-13.22,0A7.23,7.23,0,0,0,33.72,48V63.81H56.28V48A7.23,7.23,0,0,0,51.61,41.15Z"/><path class="cls-1" d="M28.74,41.09a6.44,6.44,0,0,0,6.36-6.34A12.29,12.29,0,0,1,35,33.52h0a6.39,6.39,0,1,0-6.28,7.57Z"/><path class="cls-1" d="M22.89,41.83a7.23,7.23,0,0,0-4.28,6.64V60.52H30.9V48A10.2,10.2,0,0,1,32,43.37a9,9,0,0,1-9.09-1.54Z"/><path class="cls-1" d="M54.9,34.75A6.53,6.53,0,1,0,55,33.52,12.29,12.29,0,0,1,54.9,34.75Z"/><path class="cls-1" d="M67.11,41.83A9,9,0,0,1,58,43.37,10.2,10.2,0,0,1,59.1,48V60.52H71.39V48.47A7.23,7.23,0,0,0,67.11,41.83Z"/><path class="cls-1" d="M45,81C25.62,81,9.86,64.83,9.86,45S25.62,9,45,9,80.14,25.17,80.14,45,64.38,81,45,81Zm0-69.23C27.11,11.73,12.55,26.66,12.55,45S27.11,78.27,45,78.27,77.45,63.34,77.45,45,62.89,11.73,45,11.73Z"/><path class="cls-1" d="M45,11.73a1.35,1.35,0,0,1-1.35-1.35v-9a1.35,1.35,0,1,1,2.7,0v9A1.35,1.35,0,0,1,45,11.73Z"/><path class="cls-1" d="M45,11.73a1.35,1.35,0,0,1-1.35-1.35v-9a1.35,1.35,0,1,1,2.7,0v9A1.35,1.35,0,0,1,45,11.73Z"/><path class="cls-1" d="M11.2,46.35H2.38a1.35,1.35,0,0,1,0-2.7H11.2a1.35,1.35,0,1,1,0,2.7Z"/><path class="cls-1" d="M45,90a1.35,1.35,0,0,1-1.35-1.35v-9a1.35,1.35,0,1,1,2.7,0v9A1.35,1.35,0,0,1,45,90Z"/><path class="cls-1" d="M87.62,46.35H78.8a1.35,1.35,0,1,1,0-2.7h8.82a1.35,1.35,0,0,1,0,2.7Z"/></svg>