<svg xmlns="http://www.w3.org/2000/svg" width="32" height="32" viewBox="0 0 32 32">
  <path id="Tracciato_1103" data-name="Tracciato 1103" d="M176.835-109.794a16,16,0,0,0-16,16,16,16,0,0,0,16,16,16,16,0,0,0,16-16A16,16,0,0,0,176.835-109.794Zm3.224,22.163a1.71,1.71,0,0,1-1.7,1.7h-8.334a1.714,1.714,0,0,1-1.707-1.7v-7.68a1.717,1.717,0,0,1,1.707-1.707h8.334a1.713,1.713,0,0,1,1.7,1.707Zm5.3-4.836a1.9,1.9,0,0,1-1.892,1.9H181.2v-4.74a2.854,2.854,0,0,0-2.838-2.844h-4.735v-1.61a1.9,1.9,0,0,1,1.891-1.9h7.956a1.9,1.9,0,0,1,1.892,1.9Z" transform="translate(-160.835 109.794)" fill="#2f3380"/>
</svg>
