<svg xmlns="http://www.w3.org/2000/svg" width="19.502" height="18" viewBox="0 0 19.502 18"><defs><style>.a{fill:#4d4f5c;}</style></defs><path class="a" d="M2.953,7.467A1.965,1.965,0,0,0,1,9.42v8.787a1.961,1.961,0,0,0,1.953,1.948h9.535a1.957,1.957,0,0,0,1.948-1.948V9.42a1.961,1.961,0,0,0-1.948-1.953ZM9.234,2.155A2.175,2.175,0,0,0,7.07,4.324V6.166h5.418A3.266,3.266,0,0,1,15.735,9.42v5.423h2.6A2.176,2.176,0,0,0,20.5,12.674V4.324a2.176,2.176,0,0,0-2.165-2.169Z" transform="translate(-1 -2.155)"/></svg>