<svg xmlns="http://www.w3.org/2000/svg" width="36.678" height="21" viewBox="0 0 36.678 21">
  <g id="Raggruppa_1788" data-name="Raggruppa 1788" transform="translate(-1348.322 -295)">
    <text id="csv" transform="translate(1374 310)" fill="#4d4f5c" font-size="15" font-family="SourceSansPro-Bold, Source Sans Pro" font-weight="700"><tspan x="-10" y="0">csv</tspan></text>
    <path id="Tracciato_1298" data-name="Tracciato 1298" d="M30.574,33.136H21.781a.689.689,0,1,1,0-1.378h8.793a.689.689,0,1,1,0,1.378ZM29.94,24.46A.694.694,0,0,1,31,25.354v0l-4.3,5.023a.689.689,0,0,1-.973.061.637.637,0,0,1-.061-.061l-4.314-5.023a.69.69,0,1,1,1.051-.9l3.084,3.6V18.32a.689.689,0,1,1,1.378,0v9.744Z" transform="translate(1327.23 279.369)" fill="#4d4f5c"/>
  </g>
</svg>
