<svg id="Livello_1" data-name="Livello 1" xmlns="http://www.w3.org/2000/svg" viewBox="0 0 90 90"><defs><style>.cls-1{fill:#fff;}</style></defs><path class="cls-1" d="M45,38.09a12.2,12.2,0,1,0-12.2-12.2A12.22,12.22,0,0,0,45,38.09Z"/><path class="cls-1" d="M56.27,38.59a16.89,16.89,0,0,1-22.54,0,12.06,12.06,0,0,0-8,11.32v26.4H64.24V49.91A12.06,12.06,0,0,0,56.27,38.59Z"/><path class="cls-1" d="M17.27,38.49A10.86,10.86,0,0,0,28.12,27.94,17.36,17.36,0,0,1,28,25.89h0A10.87,10.87,0,1,0,17.27,38.49Z"/><path class="cls-1" d="M7.29,39.72A12,12,0,0,0,0,50.77V70.84H21V49.91a16.68,16.68,0,0,1,1.84-7.62,15.59,15.59,0,0,1-15.5-2.57Z"/><path class="cls-1" d="M61.88,27.94A10.85,10.85,0,1,0,62,25.89,17.36,17.36,0,0,1,61.88,27.94Z"/><path class="cls-1" d="M82.71,39.72a15.59,15.59,0,0,1-15.5,2.57,16.68,16.68,0,0,1,1.84,7.62V70.84H90V50.77A12,12,0,0,0,82.71,39.72Z"/></svg>