<svg xmlns="http://www.w3.org/2000/svg" width="13.875" height="19.5" viewBox="0 0 13.875 19.5">
  <path id="Icon_ionic-ios-calculator" data-name="Icon ionic-ios-calculator" d="M19.969,3.375H9.094a1.5,1.5,0,0,0-1.5,1.5v16.5a1.5,1.5,0,0,0,1.5,1.5H19.969a1.5,1.5,0,0,0,1.5-1.5V4.875A1.5,1.5,0,0,0,19.969,3.375Zm-.563,12.75v3.75A1.122,1.122,0,0,1,18.281,21h0a1.122,1.122,0,0,1-1.125-1.125v-3.75A1.122,1.122,0,0,1,18.281,15h0A1.122,1.122,0,0,1,19.406,16.125Zm0-3.75h0A1.122,1.122,0,0,1,18.281,13.5h0a1.122,1.122,0,0,1-1.125-1.125h0a1.122,1.122,0,0,1,1.125-1.125h0A1.122,1.122,0,0,1,19.406,12.375Zm-3.75,7.5h0A1.122,1.122,0,0,1,14.531,21h0a1.122,1.122,0,0,1-1.125-1.125h0a1.122,1.122,0,0,1,1.125-1.125h0A1.122,1.122,0,0,1,15.656,19.875Zm0-3.75h0a1.122,1.122,0,0,1-1.125,1.125h0a1.122,1.122,0,0,1-1.125-1.125h0A1.122,1.122,0,0,1,14.531,15h0A1.122,1.122,0,0,1,15.656,16.125Zm0-3.75h0A1.122,1.122,0,0,1,14.531,13.5h0a1.122,1.122,0,0,1-1.125-1.125h0a1.122,1.122,0,0,1,1.125-1.125h0A1.122,1.122,0,0,1,15.656,12.375Zm-3.75,7.5h0A1.122,1.122,0,0,1,10.781,21h0a1.122,1.122,0,0,1-1.125-1.125h0a1.122,1.122,0,0,1,1.125-1.125h0A1.122,1.122,0,0,1,11.906,19.875Zm0-3.75h0a1.122,1.122,0,0,1-1.125,1.125h0a1.122,1.122,0,0,1-1.125-1.125h0A1.122,1.122,0,0,1,10.781,15h0A1.122,1.122,0,0,1,11.906,16.125Zm0-3.75h0A1.122,1.122,0,0,1,10.781,13.5h0a1.122,1.122,0,0,1-1.125-1.125h0a1.122,1.122,0,0,1,1.125-1.125h0A1.122,1.122,0,0,1,11.906,12.375Zm-2.25-3.75V6.375a.752.752,0,0,1,.75-.75h8.25a.752.752,0,0,1,.75.75v2.25a.752.752,0,0,1-.75.75h-8.25A.752.752,0,0,1,9.656,8.625Z" transform="translate(-7.594 -3.375)" fill="#f79946"/>
</svg>
