<svg xmlns="http://www.w3.org/2000/svg" xmlns:xlink="http://www.w3.org/1999/xlink" width="19" height="19" viewBox="0 0 19 19">
  <defs>
    <clipPath id="clip-path">
      <rect id="Rettangolo_1732" data-name="Rettangolo 1732" width="19" height="19" transform="translate(20 85.766)" fill="#f79946"/>
    </clipPath>
  </defs>
  <g id="Gruppo_di_maschere_45" data-name="Gruppo di maschere 45" transform="translate(-20 -85.766)" clip-path="url(#clip-path)">
    <path id="Tracciato_419" d="M12.072,7.638a1.941,1.941,0,0,1-.58-.534h0a2.652,2.652,0,0,1-.2.229h0a2.027,2.027,0,0,1-.4.32h0v5.736H4.17V8.523A1.439,1.439,0,0,1,5.619,7.073H7.191L7.114,7a3.358,3.358,0,0,1-.763-1.129A3,3,0,0,1,6.077,4.6a2.893,2.893,0,0,1,.168-.961A2.413,2.413,0,0,1,7.618,2.253a2.327,2.327,0,0,1,.961-.168A2.934,2.934,0,0,1,9.83,2.36a3.4,3.4,0,0,1,1.129.778,3.071,3.071,0,0,1,.519.656A4.262,4.262,0,0,1,12,3.138h0a3.358,3.358,0,0,1,1.129-.763A2.984,2.984,0,0,1,14.376,2.1a2.552,2.552,0,0,1,.961.168,2.4,2.4,0,0,1,1.388,1.388,2.327,2.327,0,0,1,.168.961,3.053,3.053,0,0,1-.275,1.266,3.4,3.4,0,0,1-.778,1.129l-.076.076h1.571a1.439,1.439,0,0,1,1.449,1.449V13.4H12.072Zm.763-3.676a2.719,2.719,0,0,1,.778-.534,2.056,2.056,0,0,1,.793-.168,1.571,1.571,0,0,1,.534.092,1.223,1.223,0,0,1,.7.7,1.571,1.571,0,0,1,.092.534,2,2,0,0,1-.168.793,2.444,2.444,0,0,1-.534.778,2.186,2.186,0,0,1-.763.519,2,2,0,0,1-.793.168,1.66,1.66,0,0,1-.549-.092,1.223,1.223,0,0,1-.7-.7,1.571,1.571,0,0,1-.092-.534,2,2,0,0,1,.168-.793,3.273,3.273,0,0,1,.534-.763ZM10.47,6.494a1.144,1.144,0,0,1-.427.275,1.571,1.571,0,0,1-.534.092,2,2,0,0,1-.793-.168,2.67,2.67,0,0,1-.778-.519A2.719,2.719,0,0,1,7.4,5.4,2.056,2.056,0,0,1,7.236,4.6a1.571,1.571,0,0,1,.092-.534,1.223,1.223,0,0,1,.7-.7,1.571,1.571,0,0,1,.534-.092,2,2,0,0,1,.793.168,2.227,2.227,0,0,1,.763.534,2.336,2.336,0,0,1,.519.763,2,2,0,0,1,.168.793,1.728,1.728,0,0,1-.092.549A.9.9,0,0,1,10.47,6.494Zm.442,14.355H5.619A1.439,1.439,0,0,1,4.17,19.4h0V14.548h6.743v6.3Zm1.175,0v-6.3h6.727V19.4h0a1.449,1.449,0,0,1-1.449,1.449Z" transform="translate(17.89 83.917)" fill="#f79946"/>
  </g>
</svg>
