<?xml version="1.0" standalone="no"?>
<!DOCTYPE svg PUBLIC "-//W3C//DTD SVG 20010904//EN"
 "http://www.w3.org/TR/2001/REC-SVG-20010904/DTD/svg10.dtd">
<svg version="1.0" xmlns="http://www.w3.org/2000/svg"
 width="104.000000pt" height="94.000000pt" viewBox="0 0 104.000000 94.000000"
 preserveAspectRatio="xMidYMid meet">

<g transform="translate(0.000000,94.000000) scale(0.100000,-0.100000)"
fill="#000000" stroke="none">
<path d="M0 470 l0 -470 520 0 520 0 0 470 0 470 -520 0 -520 0 0 -470z m652
293 c31 -28 17 -73 -24 -73 -11 0 -18 -7 -18 -20 0 -23 18 -27 26 -5 9 22 34
18 34 -4 0 -22 -25 -51 -44 -51 -31 0 -46 26 -48 81 -3 81 29 113 74 72z
m-122 -50 c6 -32 14 -66 16 -75 4 -12 0 -18 -10 -18 -9 0 -16 7 -16 15 0 8 -5
15 -10 15 -6 0 -13 -7 -16 -15 -9 -22 -37 -19 -30 3 3 9 8 35 12 57 15 90 38
98 54 18z m-225 5 c0 -20 3 -40 8 -44 20 -20 -13 -54 -54 -54 l-29 0 0 71 0
70 38 -3 c35 -3 37 -5 37 -40z m77 -15 c3 -51 6 -58 26 -61 38 -6 24 -23 -15
-20 l-38 3 -3 68 c-2 54 0 67 12 67 11 0 16 -14 18 -57z m349 35 l0 -23 16 23
c8 12 22 22 29 22 12 0 12 -4 -1 -24 -15 -22 -15 -28 -1 -61 19 -44 20 -55 5
-55 -5 0 -15 13 -20 30 -12 34 -29 31 -29 -6 0 -27 -15 -32 -24 -8 -8 21 -8
109 1 117 13 13 23 7 24 -15z m-340 -157 c20 -16 22 -22 12 -43 -6 -13 -9 -36
-6 -51 7 -36 -14 -35 -29 1 l-12 27 -4 -27 c-7 -52 -22 -28 -22 35 0 83 14 96
61 58z m79 -57 c0 -50 -3 -64 -15 -64 -12 0 -15 14 -15 63 0 35 3 67 6 70 16
15 24 -9 24 -69z m84 63 c13 -10 17 -24 14 -67 -3 -54 -4 -55 -35 -58 l-33 -3
0 65 c0 59 5 72 31 75 3 1 13 -5 23 -12z m123 -56 c14 -70 10 -87 -13 -56 -15
20 -15 20 -30 1 -23 -31 -27 -12 -14 59 17 88 39 86 57 -4z m-387 49 c0 -5 -9
-10 -20 -10 -11 0 -20 -7 -20 -15 0 -8 7 -15 15 -15 8 0 15 -4 15 -9 0 -5 -7
-11 -15 -15 -8 -3 -15 -17 -15 -31 0 -14 -4 -25 -10 -25 -6 0 -10 28 -10 65
l0 65 30 0 c17 0 30 -4 30 -10z m457 -12 l10 -23 7 23 c4 12 12 22 18 22 6 0
8 -9 3 -22 -4 -13 -10 -41 -13 -62 -8 -48 -32 -61 -32 -18 0 16 -7 46 -15 66
-13 30 -13 36 -2 36 8 0 18 -10 24 -22z m-24 -234 c4 -42 5 -79 2 -84 -2 -4
-75 -10 -162 -14 -87 -4 -177 -9 -199 -12 l-42 -6 -7 82 c-4 44 -5 83 -2 86 7
7 197 21 313 23 l91 1 6 -76z m-473 -40 c0 -8 -5 -12 -10 -9 -6 4 -8 11 -5 16
9 14 15 11 15 -7z m400 -149 l0 -25 -125 0 -125 0 0 25 0 25 125 0 125 0 0
-25z"/>
<path d="M260 719 c0 -18 2 -19 15 -9 15 12 12 30 -6 30 -5 0 -9 -10 -9 -21z"/>
<path d="M260 660 c0 -13 5 -20 13 -17 6 2 12 10 12 17 0 7 -6 15 -12 18 -8 2
-13 -5 -13 -18z"/>
<path d="M356 561 c-4 -7 -5 -15 -2 -18 9 -9 19 4 14 18 -4 11 -6 11 -12 0z"/>
<path d="M520 525 c0 -33 4 -45 13 -42 7 2 12 20 12 42 0 22 -5 40 -12 43 -9
2 -13 -10 -13 -43z"/>
<path d="M640 525 c0 -8 4 -15 10 -15 5 0 7 7 4 15 -4 8 -8 15 -10 15 -2 0 -4
-7 -4 -15z"/>
<path d="M481 389 c-80 -5 -148 -12 -153 -17 -4 -4 -5 -37 -1 -71 l6 -64 186
7 c102 4 189 11 192 14 3 4 4 37 1 75 l-4 67 -42 -1 c-22 -1 -106 -6 -185 -10z
m184 -19 c3 -5 -1 -10 -9 -10 -19 0 -22 -30 -3 -31 10 0 10 -2 0 -6 -18 -7
-16 -33 2 -33 8 0 15 -4 15 -10 0 -5 -11 -10 -25 -10 -24 0 -25 3 -25 55 0 48
3 55 19 55 11 0 23 -4 26 -10z m-255 -22 c0 -6 -7 -8 -15 -4 -21 8 -19 -4 6
-30 26 -28 19 -57 -13 -52 -12 2 -23 8 -25 15 -3 7 3 9 16 6 27 -7 27 8 1 25
-22 14 -27 48 -7 55 16 6 37 -3 37 -15z m96 -31 c13 -50 8 -66 -12 -39 -12 16
-13 16 -19 0 -20 -52 -28 20 -9 80 8 26 28 5 40 -41z m53 -9 c1 -16 8 -28 19
-31 11 -3 7 -5 -9 -6 -24 -1 -27 3 -31 42 -3 23 -3 46 0 51 7 13 20 -22 21
-56z"/>
</g>
</svg>
