<?xml version="1.0" standalone="no"?>
<!DOCTYPE svg PUBLIC "-//W3C//DTD SVG 20010904//EN"
 "http://www.w3.org/TR/2001/REC-SVG-20010904/DTD/svg10.dtd">
<svg version="1.0" xmlns="http://www.w3.org/2000/svg"
 width="52.000000pt" height="47.000000pt" viewBox="0 0 52.000000 47.000000"
 preserveAspectRatio="xMidYMid meet">

<g transform="translate(0.000000,47.000000) scale(0.100000,-0.100000)"
fill="#000000" stroke="none">
<path d="M0 235 l0 -235 260 0 260 0 0 235 0 235 -260 0 -260 0 0 -235z m330
151 c0 -2 3 -11 6 -20 4 -11 1 -16 -10 -16 -9 0 -16 -4 -16 -10 0 -5 7 -7 16
-3 12 4 15 2 12 -8 -8 -24 -43 -17 -46 9 -5 32 4 52 23 52 8 0 15 -2 15 -4z
m-177 -33 c6 -34 1 -43 -24 -43 -15 0 -19 7 -19 35 0 28 4 35 19 35 12 0 20
-9 24 -27z m50 -35 c8 -5 6 -8 -5 -8 -24 0 -31 17 -22 48 l8 27 4 -30 c2 -16
9 -33 15 -37z m68 25 c5 -28 4 -31 -17 -29 -25 1 -28 7 -18 44 9 31 27 23 35
-15z m116 22 c-2 -5 0 -20 4 -32 5 -14 5 -23 -1 -23 -6 0 -11 8 -11 18 -1 16
-2 16 -6 0 -8 -31 -23 -20 -23 16 0 29 4 34 20 33 11 -1 19 -6 17 -12z m-252
-82 c0 -10 -6 -27 -13 -38 -10 -18 -11 -17 -12 11 0 30 6 44 20 44 4 0 6 -8 5
-17z m62 -21 c1 -26 -1 -31 -12 -22 -10 8 -14 7 -18 -2 -3 -7 -6 4 -6 25 -1
31 2 38 17 35 11 -2 18 -14 19 -36z m30 -14 c-2 -13 -4 -5 -4 17 -1 22 1 32 4
23 2 -10 2 -28 0 -40z m58 17 c0 -20 -6 -31 -17 -33 -15 -3 -18 4 -18 33 0 29
3 36 18 33 11 -2 17 -13 17 -33z m59 -7 c5 -22 3 -27 -14 -25 -20 1 -26 21
-14 52 8 20 19 9 28 -27z m41 28 c12 5 12 0 2 -26 -11 -30 -12 -31 -18 -8 -8
27 -10 59 -3 41 3 -7 12 -9 19 -7z m-157 -93 c-10 -2 -26 -2 -35 0 -10 3 -2 5
17 5 19 0 27 -2 18 -5z m66 -55 c7 -5 5 -8 -6 -8 -14 0 -18 8 -17 33 2 27 2
28 6 7 3 -14 10 -28 17 -32z m31 31 c-6 -33 -15 -36 -15 -6 0 15 4 27 9 27 6
0 8 -10 6 -21z m-130 2 c-3 -5 -1 -12 5 -16 16 -10 12 -25 -7 -25 -14 0 -15 2
-4 9 9 6 10 11 2 15 -14 9 -14 26 0 26 5 0 8 -4 4 -9z m55 -10 c0 -10 -7 -22
-16 -25 -12 -5 -15 -2 -10 10 3 8 6 20 6 25 0 5 5 9 10 9 6 0 10 -9 10 -19z
m-42 -48 c-10 -2 -26 -2 -35 0 -10 3 -2 5 17 5 19 0 27 -2 18 -5z m120 -40 c3
-10 -14 -13 -62 -13 -53 0 -66 3 -66 15 0 13 11 15 62 13 38 -2 63 -8 66 -15z"/>
<path d="M260 259 c0 -11 5 -17 10 -14 6 3 10 13 10 21 0 8 -4 14 -10 14 -5 0
-10 -9 -10 -21z"/>
</g>
</svg>
