<svg id="Raggruppa_1094" xmlns="http://www.w3.org/2000/svg" width="15.576" height="11.782" viewBox="0 0 15.576 11.782">
  <g id="Raggruppa_1783" data-name="Raggruppa 1783" transform="translate(0 0)">
    <path id="Tracciato_1300" data-name="Tracciato 1300" d="M4.351,7.9l7.228,4.033a.244.244,0,0,0,.072.029.123.123,0,0,0,.116,0c.029-.014.058-.014.072-.029L19.068,7.9a.827.827,0,0,0-.4-1.547H4.741a.824.824,0,0,0-.824.824A.806.806,0,0,0,4.351,7.9Z" transform="translate(-3.917 -6.349)" fill="#f79946"/>
    <path id="Tracciato_1301" data-name="Tracciato 1301" d="M19.448,10.233a.357.357,0,0,0-.492-.13l-7.113,4.033a.4.4,0,0,1-.26,0L4.47,10.1a.357.357,0,0,0-.492.13h0a.4.4,0,0,0-.043.188v8.168a.358.358,0,0,0,.361.361H19.13a.358.358,0,0,0,.361-.361V10.421a.219.219,0,0,0-.043-.188Z" transform="translate(-3.921 -7.168)" fill="#f79946"/>
  </g>
</svg>
