<svg xmlns="http://www.w3.org/2000/svg" xmlns:xlink="http://www.w3.org/1999/xlink" width="21" height="21" viewBox="0 0 21 21">
  <defs>
    <clipPath id="clip-path">
      <rect id="Rettangolo_1763" data-name="Rettangolo 1763" width="21" height="21" transform="translate(1346 807)" fill="#f79946" stroke="#707070" stroke-width="1"/>
    </clipPath>
  </defs>
  <g id="Gruppo_di_maschere_52" data-name="Gruppo di maschere 52" transform="translate(-1346 -807)" clip-path="url(#clip-path)">
    <g id="UCC_icon_enrichment" transform="translate(1346 807.791)">
      <path id="Tracciato_1349" data-name="Tracciato 1349" d="M1.214,4.809a10.287,10.287,0,0,0,4.631,1.21,19.117,19.117,0,0,0,5.736-.368,5.683,5.683,0,0,0,2.079-.842c0,.079.026.132.026.211v2.5c0,.237-.079.316-.289.421-.579.263-1.158.553-1.71.868a2.6,2.6,0,0,1-.737.316,18.768,18.768,0,0,1-7.657-.158,7.455,7.455,0,0,1-1.5-.605,1,1,0,0,1-.579-1C1.24,6.493,1.214,5.651,1.214,4.809Z" transform="translate(-1.212 -1.625)" fill="#f79946"/>
      <path id="Tracciato_1350" data-name="Tracciato 1350" d="M7.477,1.928a17.957,17.957,0,0,1,4.578.632,8.353,8.353,0,0,1,1.105.5,2.31,2.31,0,0,1,.395.316.557.557,0,0,1,0,.816,2.833,2.833,0,0,1-.632.474,6.671,6.671,0,0,1-2.342.684,19.131,19.131,0,0,1-6.815-.132,10.071,10.071,0,0,1-1.71-.579,1.119,1.119,0,0,1-.605-.368.592.592,0,0,1,0-.947,2.714,2.714,0,0,1,.737-.474,8.163,8.163,0,0,1,2.5-.658C5.608,2.086,6.529,2.007,7.477,1.928Z" transform="translate(-1.212 -1.928)" fill="#f79946"/>
      <path id="Tracciato_1351" data-name="Tracciato 1351" d="M14.972,20.731a6.473,6.473,0,1,1,6.473-6.447A6.457,6.457,0,0,1,14.972,20.731ZM9.236,14.258A5.749,5.749,0,1,0,14.946,8.5,5.733,5.733,0,0,0,9.236,14.258Z" transform="translate(-0.445 -1.312)" fill="#f79946"/>
      <path id="Tracciato_1352" data-name="Tracciato 1352" d="M1.214,8.5a10.18,10.18,0,0,0,4.6,1.21,19.132,19.132,0,0,0,4.421-.132h.026a16.5,16.5,0,0,0-.947,1.631c-.263.579-.421,1.21-.632,1.816.026.026.053.026.053.053-.079,0-.158.026-.263.026a16.966,16.966,0,0,1-5.289-.474,9.309,9.309,0,0,1-1.395-.605.95.95,0,0,1-.553-1C1.24,10.183,1.214,9.367,1.214,8.5Z" transform="translate(-1.212 -1.237)" fill="#f79946"/>
      <path id="Tracciato_1353" data-name="Tracciato 1353" d="M8.635,13.473c.053.553.079,1.105.184,1.658.105.526.289,1.053.447,1.605-.105,0-.263.026-.421.026a17.889,17.889,0,0,1-5.552-.421,10.381,10.381,0,0,1-1.5-.579,1.041,1.041,0,0,1-.579-1.053c.026-.763,0-1.5,0-2.263v-.211c.5.211.974.447,1.474.605a16.075,16.075,0,0,0,4.6.632Z" transform="translate(-1.212 -0.843)" fill="#f79946"/>
      <path id="Tracciato_1354" data-name="Tracciato 1354" d="M12.838,15.586V13.4c0-.289-.053-.342-.342-.342h-.658c-.132,0-.289.026-.316-.132a.485.485,0,0,1,.132-.316c.658-.605,1.316-1.21,1.947-1.816.263-.263.553-.5.816-.763a.27.27,0,0,1,.447,0c.921.868,1.868,1.737,2.789,2.6a.29.29,0,0,1,.105.263.377.377,0,0,1-.289.132,5.487,5.487,0,0,1-.658,0c-.316,0-.368.053-.368.368v4.447c0,.184-.079.263-.263.263h-3.1c-.211,0-.263-.105-.263-.289C12.838,17.086,12.838,16.349,12.838,15.586Z" transform="translate(-0.127 -1.088)" fill="#f79946"/>
    </g>
  </g>
</svg>
