<svg xmlns="http://www.w3.org/2000/svg" xmlns:xlink="http://www.w3.org/1999/xlink" width="17" height="17" viewBox="0 0 17 17">
  <defs>
    <clipPath id="clip-path">
      <rect id="Rettangolo_1742" data-name="Rettangolo 1742" width="17" height="17" transform="translate(20 85.766)" fill="#2f3380"/>
    </clipPath>
  </defs>
  <g id="Gruppo_di_maschere_43" data-name="Gruppo di maschere 43" transform="translate(-20 -85.766)" clip-path="url(#clip-path)">
    <path id="Tracciato_419" d="M11.186,7.015a1.723,1.723,0,0,1-.515-.474h0a2.354,2.354,0,0,1-.176.2h0a1.8,1.8,0,0,1-.352.284h0v5.093H4.17V7.8A1.278,1.278,0,0,1,5.457,6.514h1.4l-.068-.068a2.981,2.981,0,0,1-.677-1A2.665,2.665,0,0,1,5.863,4.32a2.569,2.569,0,0,1,.149-.853A2.143,2.143,0,0,1,7.231,2.234a2.066,2.066,0,0,1,.853-.149A2.6,2.6,0,0,1,9.2,2.329a3.018,3.018,0,0,1,1,.691,2.727,2.727,0,0,1,.461.582,3.784,3.784,0,0,1,.461-.582h0a2.981,2.981,0,0,1,1-.677A2.65,2.65,0,0,1,13.231,2.1a2.266,2.266,0,0,1,.853.149A2.127,2.127,0,0,1,15.317,3.48a2.066,2.066,0,0,1,.149.853,2.711,2.711,0,0,1-.244,1.124,3.018,3.018,0,0,1-.691,1l-.068.068h1.4a1.278,1.278,0,0,1,1.287,1.287v4.321H11.186Zm.677-3.264a2.414,2.414,0,0,1,.691-.474,1.826,1.826,0,0,1,.7-.149,1.4,1.4,0,0,1,.474.081,1.086,1.086,0,0,1,.623.623,1.4,1.4,0,0,1,.081.474,1.775,1.775,0,0,1-.149.7,2.17,2.17,0,0,1-.474.691,1.941,1.941,0,0,1-.677.461,1.775,1.775,0,0,1-.7.149,1.474,1.474,0,0,1-.488-.081,1.086,1.086,0,0,1-.623-.623,1.4,1.4,0,0,1-.081-.474,1.775,1.775,0,0,1,.149-.7,2.906,2.906,0,0,1,.474-.677ZM9.764,6a1.016,1.016,0,0,1-.379.244,1.4,1.4,0,0,1-.474.081,1.775,1.775,0,0,1-.7-.149,2.371,2.371,0,0,1-.691-.461,2.414,2.414,0,0,1-.474-.691,1.826,1.826,0,0,1-.149-.7,1.4,1.4,0,0,1,.081-.474A1.086,1.086,0,0,1,7.6,3.223a1.4,1.4,0,0,1,.474-.081,1.775,1.775,0,0,1,.7.149,1.977,1.977,0,0,1,.677.474,2.074,2.074,0,0,1,.461.677,1.775,1.775,0,0,1,.149.7,1.534,1.534,0,0,1-.081.488A.8.8,0,0,1,9.764,6Zm.393,12.745h-4.7A1.278,1.278,0,0,1,4.17,17.458h0V13.151h5.987v5.594Zm1.043,0V13.151h5.973v4.307h0a1.286,1.286,0,0,1-1.287,1.287Z" transform="translate(17.659 83.891)" fill="#2f3380"/>
  </g>
</svg>
