<svg xmlns="http://www.w3.org/2000/svg" xmlns:xlink="http://www.w3.org/1999/xlink" width="32" height="19" viewBox="0 0 32 19">
  <defs>
    <clipPath id="clip-path">
      <rect id="Rettangolo_1668" data-name="Rettangolo 1668" width="32" height="19" transform="translate(656.696 314)" fill="#2f3380" stroke="#707070" stroke-width="1"/>
    </clipPath>
  </defs>
  <g id="Gruppo_di_maschere_12" data-name="Gruppo di maschere 12" transform="translate(-656.696 -314)" clip-path="url(#clip-path)">
    <g id="noun_desktop_2577560" transform="translate(663.207 314)">
      <path id="Tracciato_1201" data-name="Tracciato 1201" d="M18.043,16.462a1.588,1.588,0,0,0,1.581-1.581V2.229A1.588,1.588,0,0,0,18.043.647H2.229A1.588,1.588,0,0,0,.647,2.229V14.88a1.588,1.588,0,0,0,1.581,1.581H8.555v.8l-1.826.6a.769.769,0,0,0-.535.757v.223a.8.8,0,0,0,.8.8h6.326a.8.8,0,0,0,.8-.8v-.223a.819.819,0,0,0-.535-.757l-1.871-.6v-.8ZM2.229,12.5V2.229H18.066V12.519H2.229Z" transform="translate(-0.647 -0.647)" fill="#2f3380"/>
    </g>
  </g>
</svg>
