<svg xmlns="http://www.w3.org/2000/svg" xmlns:xlink="http://www.w3.org/1999/xlink" width="29" height="29" viewBox="0 0 29 29">
  <defs>
    <clipPath id="clip-path">
      <rect id="Rettangolo_1693" data-name="Rettangolo 1693" width="29" height="29" transform="translate(974 310)" fill="#2f3380" stroke="#707070" stroke-width="1"/>
    </clipPath>
  </defs>
  <g id="Gruppo_di_maschere_24" data-name="Gruppo di maschere 24" transform="translate(-974 -310)" clip-path="url(#clip-path)">
    <g id="twitter" transform="translate(974.001 310)">
      <path id="Tracciato_1254" data-name="Tracciato 1254" d="M13.6,0h1.8c.064,0,.129.032.226.032a14.041,14.041,0,0,1,6.282,2.03,14.335,14.335,0,0,1,6.862,9.955c.1.515.161,1.063.226,1.579v1.8c-.032.354-.064.677-.129,1.031a14.3,14.3,0,0,1-5.477,9.5,14.094,14.094,0,0,1-10.825,2.932A14.108,14.108,0,0,1,3.9,24.388,14.251,14.251,0,0,1,.129,12.532,13.887,13.887,0,0,1,3.608,4.9a14.175,14.175,0,0,1,8.408-4.7C12.532.129,13.08.064,13.6,0ZM11.469,18.331a6.9,6.9,0,0,1-4.8,1.385c0,.032,0,.064.032.064.032.032.1.064.129.1a9.154,9.154,0,0,0,9.085.322c3.447-1.74,5.058-4.7,5.187-8.537a.724.724,0,0,1,.29-.644A5.419,5.419,0,0,0,22.68,9.6c-.58.161-1.16.322-1.707.451a.112.112,0,0,0-.032-.064,3.4,3.4,0,0,0,1.321-1.675c-.612.226-1.224.419-1.836.644a.406.406,0,0,1-.419-.1,3.15,3.15,0,0,0-3.383-.677,3.16,3.16,0,0,0-2.158,2.738c-.032.354,0,.741,0,1.128A9.586,9.586,0,0,1,7.635,8.57,3.452,3.452,0,0,0,8.6,13.015c0,.032-.032.032-.032.064l-1.353-.387c-.1,1.353.805,2.513,2.513,3.286H8.344A3.422,3.422,0,0,0,11.469,18.331Z" fill="#2f3380"/>
    </g>
  </g>
</svg>
