<?xml version="1.0" encoding="utf-8"?>
<!-- Generator: Adobe Illustrator 26.0.1, SVG Export Plug-In . SVG Version: 6.00 Build 0)  -->
<svg version="1.1" id="Bold" xmlns="http://www.w3.org/2000/svg" xmlns:xlink="http://www.w3.org/1999/xlink" x="0px" y="0px"
	 viewBox="0 0 90 90" style="enable-background:new 0 0 90 90;" xml:space="preserve">
<style type="text/css">
	.st0{fill:#FFFFFF;}
</style>
<path class="st0" d="M45,0C20.1,0,0,20.1,0,45s20.1,45,45,45s45-20.1,45-45S69.9,0,45,0z M30.7,70.9H19.9V36.3h10.8V70.9z
	 M25.3,31.6c-3.4,0-6.2-2.9-6.2-6.3s2.8-6.2,6.2-6.2s6.2,2.8,6.2,6.2S28.7,31.6,25.3,31.6z M70.9,70.9L70.9,70.9L70.9,70.9H60.2
	V54.1c0-4-0.1-9.2-5.6-9.2c-5.6,0-6.4,4.4-6.4,8.9v17.1H37.4V36.3h10.3V41h0.2c1.4-2.7,4.9-5.6,10.1-5.6c10.9,0,12.9,7.2,12.9,16.5
	V70.9z"/>
</svg>
