<svg xmlns="http://www.w3.org/2000/svg" width="17" height="9.863" viewBox="0 0 17 9.863">
  <g id="noun_hat_graduation_2711216" data-name="noun_hat graduation_2711216" transform="translate(-239.4 -197.69)">
    <g id="Raggruppa_934" data-name="Raggruppa 934" transform="translate(239.4 197.69)">
      <path id="Tracciato_850" data-name="Tracciato 850" d="M13.016,17.563a.4.4,0,0,1-.088-.013L6.85,15.29v3.522L13.016,20.7l6-1.889V15.3L13.1,17.55A.4.4,0,0,1,13.016,17.563Z" transform="translate(-4.523 -10.838)" fill="#d1d2e3"/>
      <path id="Tracciato_851" data-name="Tracciato 851" d="M11.893,8.69,3.4,11.786l2.159.756h0L11.893,14.9l6.159-2.354h.007l2.118-.756Z" transform="translate(-3.4 -8.69)" fill="#d1d2e3"/>
      <path id="Tracciato_852" data-name="Tracciato 852" d="M27.532,17.308V14.4l-.675.344v2.564a.708.708,0,0,0-.378.621.715.715,0,1,0,1.43,0A.708.708,0,0,0,27.532,17.308Z" transform="translate(-10.91 -10.548)" fill="#d1d2e3"/>
    </g>
  </g>
</svg>
