<svg xmlns="http://www.w3.org/2000/svg" width="24.8" height="24.8" viewBox="0 0 24.8 24.8">
  <g id="noun_Info_469213" transform="translate(61 19)">
    <g id="Raggruppa_944" data-name="Raggruppa 944" transform="translate(-61 -19)">
      <g id="Raggruppa_943" data-name="Raggruppa 943">
        <path id="Tracciato_854" data-name="Tracciato 854" d="M12.4,0A12.462,12.462,0,0,0,0,12.4,12.462,12.462,0,0,0,12.4,24.8,12.462,12.462,0,0,0,24.8,12.4,12.528,12.528,0,0,0,12.4,0Zm0,23.2A10.884,10.884,0,0,1,1.6,12.4,10.884,10.884,0,0,1,12.4,1.6,10.884,10.884,0,0,1,23.2,12.4,10.884,10.884,0,0,1,12.4,23.2Z" fill="#a3a0fb"/>
        <g id="Raggruppa_942" data-name="Raggruppa 942">
          <path id="Tracciato_855" data-name="Tracciato 855" d="M13.5,18.2a1,1,0,0,1-1,1h-.3a1,1,0,0,1-1-1V9.9a1,1,0,0,1,1-1h.3a1,1,0,0,1,1,1Z" fill="#a3a0fb"/>
          <circle id="Ellisse_57" data-name="Ellisse 57" cx="1.1" cy="1.1" r="1.1" transform="translate(11.3 5.6)" fill="#a3a0fb"/>
        </g>
      </g>
    </g>
  </g>
</svg>
