<?xml version="1.0" encoding="utf-8"?>
<!-- Generator: Adobe Illustrator 26.0.1, SVG Export Plug-In . SVG Version: 6.00 Build 0)  -->
<svg version="1.1" id="Bold" xmlns="http://www.w3.org/2000/svg" xmlns:xlink="http://www.w3.org/1999/xlink" x="0px" y="0px"
	 viewBox="0 0 90 90" style="enable-background:new 0 0 90 90;" xml:space="preserve">
<g>
	<path d="M42.2,0c1.9,0,3.7,0,5.6,0c0.2,0,0.4,0.1,0.7,0.1C55.5,0.7,62,2.7,68,6.4c11.6,7.2,18.8,17.4,21.3,30.9
		c0.3,1.6,0.5,3.3,0.7,4.9c0,1.9,0,3.7,0,5.6c-0.1,1.1-0.2,2.1-0.4,3.2c-1.8,12.1-7.4,22-17,29.5c-9.9,7.7-21.2,10.7-33.6,9.1
		c-10.6-1.4-19.6-6.1-26.9-13.9C2.5,65.2-1.3,52.9,0.4,38.9c1.1-9,4.8-16.9,10.8-23.7c7-7.9,15.7-12.8,26.1-14.6
		C38.9,0.4,40.6,0.2,42.2,0z M35.6,56.9c-4.6,3.4-9.5,4.7-14.9,4.3c0,0.1,0,0.2,0.1,0.2c0.1,0.1,0.3,0.2,0.4,0.3
		c9.2,5.2,18.8,5.8,28.2,1c10.7-5.4,15.7-14.6,16.1-26.5c0-0.9,0.2-1.4,0.9-2c1.6-1.2,2.9-2.7,4-4.4c-1.8,0.5-3.6,1-5.3,1.4
		c0-0.1-0.1-0.2-0.1-0.2c1.9-1.3,3.3-3,4.1-5.2c-1.9,0.7-3.8,1.3-5.7,2c-0.5,0.2-0.9,0-1.3-0.3c-3.1-2.8-6.7-3.5-10.5-2.1
		c-3.9,1.4-6.2,4.4-6.7,8.5c-0.1,1.1,0,2.3,0,3.5c-8.5-0.6-15.5-4.2-21.2-10.8c-2.5,5.4-1.4,10,3,13.8c0,0.1-0.1,0.1-0.1,0.2
		c-1.4-0.4-2.8-0.8-4.2-1.2c-0.3,4.2,2.5,7.8,7.8,10.2c-1.4,0-2.8,0-4.3,0C27.7,54.1,30.8,56.5,35.6,56.9z"/>
</g>
</svg>
