<svg xmlns="http://www.w3.org/2000/svg" xmlns:xlink="http://www.w3.org/1999/xlink" width="16" height="16" viewBox="0 0 16 16">
  <defs>
    <clipPath id="clip-path">
      <rect id="Rettangolo_1799" data-name="Rettangolo 1799" width="16" height="16" transform="translate(1376 363)" fill="#f79946" stroke="#707070" stroke-width="1"/>
    </clipPath>
  </defs>
  <g id="Gruppo_di_maschere_66" data-name="Gruppo di maschere 66" transform="translate(-1376 -363)" clip-path="url(#clip-path)">
    <g id="UCC_icon_deposit" transform="translate(1375.55 362.551)">
      <path id="Tracciato_1404" data-name="Tracciato 1404" d="M9.632,15.4a6.965,6.965,0,0,1-6.947-5.67c-.075-.394-.075-.807-.113-1.22a.442.442,0,0,1,.038-.15c.038.019.094.019.131.056a.9.9,0,0,0,1.108-.094c.845-.77,1.671-1.54,2.516-2.309a.862.862,0,0,0,.263-.976.882.882,0,0,0-.864-.582c-.225,0-.244-.019-.225-.263.038-.432.075-.864.113-1.314A.416.416,0,0,1,5.9,2.516,6.987,6.987,0,0,1,16.185,6.553,6.921,6.921,0,0,1,9.632,15.4Zm1.389-8.13h.488c.113,0,.169-.038.169-.169a1.841,1.841,0,0,0-1.54-1.84c-.094-.019-.113-.056-.113-.15V4.412c0-.094-.038-.131-.131-.131H9.463c-.094,0-.113.038-.113.131v.638c0,.113-.038.169-.15.188A1.923,1.923,0,0,0,7.98,5.9a1.788,1.788,0,0,0,.319,2.5,6.77,6.77,0,0,0,1.22.62,1.636,1.636,0,0,1,.695.413.853.853,0,0,1-.094,1.2.992.992,0,0,1-1,.038.848.848,0,0,1-.488-.77V9.782a.1.1,0,0,0-.113-.113H7.492c-.038,0-.113.056-.113.094a1.7,1.7,0,0,0,.582,1.446,2.2,2.2,0,0,0,1.108.488c.131.019.15.075.15.188v.582c0,.094.038.131.113.131H9.8c.094,0,.113-.038.113-.113V11.9c0-.113.038-.15.15-.169a1.665,1.665,0,0,0,1.521-1.2,1.621,1.621,0,0,0-.732-2.047c-.319-.188-.657-.338-.976-.507-.188-.094-.394-.169-.582-.282a.8.8,0,0,1-.413-.826.649.649,0,0,1,.544-.638.681.681,0,0,1,.845.432,2.214,2.214,0,0,1,.113.507c.019.094.056.131.15.131A2.31,2.31,0,0,1,11.021,7.266Z" fill="#f79946"/>
      <path id="Tracciato_1405" data-name="Tracciato 1405" d="M3.211,1.5h1.6c.244,0,.3.075.282.3-.094,1-.207,1.971-.3,2.967-.038.282.038.357.319.357h.638a.252.252,0,0,1,.263.131c.038.113-.038.188-.113.263C5.088,6.271,4.281,7,3.474,7.754a.3.3,0,0,1-.469,0C2.2,7,1.389,6.271.582,5.52.488,5.445.413,5.37.469,5.257a.266.266,0,0,1,.263-.15h.676c.188,0,.263-.094.244-.282C1.54,3.811,1.427,2.8,1.333,1.784c-.019-.207.056-.282.263-.282Z" fill="#f79946"/>
    </g>
  </g>
</svg>
