<svg id="Raggruppa_1793" data-name="Raggruppa 1793" xmlns="http://www.w3.org/2000/svg" xmlns:xlink="http://www.w3.org/1999/xlink" width="170.163" height="170.176" viewBox="0 0 170.163 170.176">
  <defs>
    <clipPath id="clip-path">
      <rect id="Rettangolo_1731" data-name="Rettangolo 1731" width="170.163" height="170.176" fill="none"/>
    </clipPath>
  </defs>
  <g id="Raggruppa_1792" data-name="Raggruppa 1792" clip-path="url(#clip-path)">
    <path id="Tracciato_1299" data-name="Tracciato 1299" d="M0,90.774v-11.3a1.752,1.752,0,0,0,.319-1.251A74.36,74.36,0,0,1,2.588,64.338C7.858,44.112,18.883,27.726,36,15.75,57.552.675,81.32-3.562,106.769,2.967a81.373,81.373,0,0,1,47.647,33.1c15.075,21.55,19.286,45.306,12.807,70.768-4.7,18.478-14.905,33.552-29.87,45.318a82.521,82.521,0,0,1-39.967,17.087c-2.337.334-4.68.629-7.021.941H79.4a1.756,1.756,0,0,0-1.251-.319,75.617,75.617,0,0,1-14.53-2.427A84.091,84.091,0,0,1,18.33,137.8,82.757,82.757,0,0,1,.939,97.456C.618,95.23.313,93,0,90.774M85.266,38.613c-19.043,0-38.088.1-57.13-.062a9.324,9.324,0,0,0-9.612,9.48c.135,24.745.058,49.491.075,74.236,0,5.716,3.625,9.347,9.354,9.349q57.131.02,114.261,0c5.633,0,9.281-3.647,9.286-9.248.02-24.8-.054-49.6.073-74.4a9.284,9.284,0,0,0-9.509-9.408c-18.932.145-37.865.057-56.8.057" transform="translate(0 0)" fill="#efc38a"/>
    <path id="Tracciato_1300" data-name="Tracciato 1300" d="M111.716,93.661c18.933,0,37.866.088,56.8-.057a9.283,9.283,0,0,1,9.509,9.408c-.126,24.8-.053,49.6-.073,74.4,0,5.6-3.653,9.246-9.286,9.248q-57.131.024-114.261,0c-5.73,0-9.351-3.634-9.355-9.349-.016-24.745.061-49.491-.074-74.236a9.324,9.324,0,0,1,9.611-9.48c19.043.159,38.087.062,57.13.062m50.6,5.04c-.5-.018-.995-.051-1.492-.051q-52.9,0-105.8,0c-.277,0-.554-.01-.83,0-2.722.139-4.137,1.587-4.158,4.322-.024,3.045-.007,6.09-.006,9.135,0,2.249,0,2.251,2.191,2.251q54.145,0,108.29,0c.607,0,1.214-.051,1.82-.079,3.092.022,6.184,0,9.275.085,1.138.03,1.386-.446,1.371-1.471-.048-3.314,0-6.628-.025-9.942-.023-2.714-1.447-4.2-4.177-4.282-2.151-.064-4.306.016-6.459.033m0,82.955c1.825.019,3.651.051,5.477.054,4.047.007,5.207-1.168,5.208-5.247q0-27.486,0-54.971c0-.388-.03-.778,0-1.162.07-.808-.307-1.05-1.075-1.039-3.208.048-6.418.056-9.627.079-.33-.023-.661-.066-.991-.066q-54.889,0-109.779-.039c-1.446,0-1.566.56-1.564,1.732q.041,27.735.02,55.471c0,4.078,1.159,5.244,5.21,5.244q52.647,0,105.294,0c.608,0,1.215-.035,1.823-.054" transform="translate(-26.45 -55.048)" fill="#2f3380"/>
    <path id="Tracciato_1301" data-name="Tracciato 1301" d="M169.462,218.305c-.608.019-1.215.054-1.823.054q-52.647,0-105.294,0c-4.051,0-5.21-1.166-5.21-5.244q0-27.735-.02-55.47c0-1.173.118-1.734,1.564-1.732q54.889.068,109.779.039c.33,0,.661.043.991.066q.007,31.143.014,62.285m-74.4-45.778c0-2.934.017-5.868-.006-8.8-.016-2.057-.851-3-2.889-3.018q-8.885-.075-17.771,0c-2.05.016-2.923.952-2.93,2.986q-.033,8.8,0,17.605c.007,2.047.869,3.007,2.9,3.024q8.885.075,17.771,0c2.05-.017,2.905-.958,2.923-2.992.025-2.934.007-5.868.007-8.8m0,27.718c0-2.935.021-5.869-.007-8.8-.02-2.033-.908-2.948-2.956-2.958q-8.886-.044-17.772,0c-1.932.012-2.848.96-2.856,2.894q-.04,8.886,0,17.772c.008,2.035.906,2.917,2.964,2.925q8.8.033,17.606,0c2.154-.007,3-.873,3.018-3.032.022-2.934.005-5.869,0-8.8M143.6,174.353c0,1.328-.014,2.657,0,3.984.013.9.263,1.767,1.331,1.719.935-.042,1.2-.83,1.2-1.695-.009-1.494-.028-2.989.009-4.482.044-1.759.844-2.705,2.232-2.732,1.437-.028,2.351.985,2.409,2.771.046,1.437.025,2.877.007,4.316-.011.9.1,1.812,1.183,1.835,1.219.026,1.268-.967,1.259-1.906-.014-1.494-.053-2.99.016-4.481a2.373,2.373,0,0,1,2.478-2.531c1.329.058,2.136.984,2.183,2.611.043,1.493.014,2.988.014,4.482,0,.888.143,1.8,1.218,1.827,1.2.028,1.312-.949,1.31-1.892,0-1.494.045-2.99-.013-4.482-.168-4.313-4.141-6.415-7.754-4.068a.949.949,0,0,1-1.364-.033,4.585,4.585,0,0,0-4.554-.629,1.461,1.461,0,0,1-1.229-.035c-1.233-.519-1.861-.1-1.922,1.271s-.014,2.766-.014,4.149m-10.651,28.669c2.2,0,4.247.016,6.293,0,1.982-.019,2.462-.69,1.915-2.6a5.533,5.533,0,0,0-6.626-3.831,5.765,5.765,0,1,0,5,10.135c.493-.408.945-.817.542-1.529-.39-.691-.986-.6-1.589-.376-.31.113-.589.311-.9.425-2.023.743-3.689.01-4.635-2.215m6.733-28.49a5.484,5.484,0,1,0-5.527,5.63,5.573,5.573,0,0,0,5.527-5.63m-22.731,27.575q0,1.909,0,3.818c0,.9-.062,1.94,1.235,1.886,1.219-.05,1.225-1.05,1.222-1.971,0-1.383-.036-2.768.011-4.15.062-1.811.968-2.814,2.4-2.763,1.38.05,2.208,1.015,2.255,2.732.044,1.6,0,3.209.035,4.813.016.727.326,1.331,1.15,1.367.928.041,1.269-.6,1.278-1.4a51.149,51.149,0,0,0-.06-5.638c-.326-3.255-3.19-5.01-6.39-4.045a1.451,1.451,0,0,1-1.214-.009c-1.241-.585-1.859-.174-1.911,1.206s-.012,2.766-.015,4.15m4.625-21.98a6.309,6.309,0,0,0,3.407-1.141,1.152,1.152,0,0,0,.521-1.57,1.178,1.178,0,0,0-1.56-.568c-.362.12-.681.367-1.039.506a3.427,3.427,0,0,1-4.126-1.162,2.981,2.981,0,0,1,.054-3.689,3.356,3.356,0,0,1,4.149-1.04c.253.108.493.248.736.377a1.166,1.166,0,0,0,1.727-.382c.449-.776.044-1.329-.641-1.786a5.788,5.788,0,0,0-6.812.166,5.63,5.63,0,0,0-2,6.348,5.924,5.924,0,0,0,5.585,3.941M144.868,202.5h.024c0,.993-.072,1.993.017,2.978a2.426,2.426,0,0,0,2.325,2.372,1.131,1.131,0,0,0,1.258-.6c.243-.521.3-1.2-.249-1.494-.883-.471-.8-1.194-.79-1.96.012-1.1.023-2.208,0-3.312-.02-.8.009-1.393,1.012-1.736a1.1,1.1,0,0,0,.08-2.106c-1.3-.322-1.068-1.126-1.084-1.959-.009-.442.011-.884-.014-1.324-.05-.867-.4-1.572-1.37-1.514-.835.049-1.215.661-1.2,1.5.008.5,0,.993,0,1.49-.009.779.252,1.673-1.074,1.7-.5.011-.821.564-.836,1.1s.243,1.091.771,1.138c1.346.119,1.146,1.043,1.14,1.906,0,.607,0,1.215,0,1.822m-30.094-23.841a1.627,1.627,0,0,0-1.633-1.774,1.571,1.571,0,0,0-1.709,1.638,1.524,1.524,0,0,0,1.626,1.687,1.562,1.562,0,0,0,1.716-1.552m0,27.761a1.581,1.581,0,0,0-1.61-1.711,1.661,1.661,0,1,0-.126,3.32,1.582,1.582,0,0,0,1.735-1.608" transform="translate(-33.591 -91.698)" fill="#fefdfe"/>
    <path id="Tracciato_1302" data-name="Tracciato 1302" d="M169.553,121.483c-.607.027-1.214.079-1.821.079q-54.145.006-108.29,0c-2.19,0-2.19,0-2.19-2.251,0-3.045-.018-6.09.006-9.135.022-2.734,1.436-4.183,4.159-4.322.276-.014.553,0,.83,0q52.9,0,105.8,0c.5,0,.994.033,1.492.051l.016,15.577m-81.8-4.315a3.5,3.5,0,1,0-3.4-3.559,3.507,3.507,0,0,0,3.4,3.559m-20.556,0a3.5,3.5,0,1,0-3.47-3.506,3.519,3.519,0,0,0,3.47,3.506m10.165,0a3.564,3.564,0,0,0,3.729-3.42,3.609,3.609,0,0,0-3.427-3.573,3.546,3.546,0,0,0-3.615,3.355,3.5,3.5,0,0,0,3.313,3.638" transform="translate(-33.667 -62.253)" fill="#a3cef1"/>
    <path id="Tracciato_1303" data-name="Tracciato 1303" d="M329.867,218.342q-.007-31.143-.014-62.286c3.209-.023,6.419-.03,9.627-.079.768-.012,1.145.231,1.075,1.039-.033.384,0,.774,0,1.162q0,27.485,0,54.971c0,4.079-1.161,5.253-5.208,5.247-1.825,0-3.651-.035-5.477-.054" transform="translate(-193.995 -91.734)" fill="#d2e4f5"/>
    <path id="Tracciato_1304" data-name="Tracciato 1304" d="M329.9,121.481l-.016-15.577c2.153-.016,4.309-.1,6.459-.033,2.73.081,4.154,1.568,4.177,4.283.028,3.314-.023,6.628.025,9.941.015,1.026-.232,1.5-1.371,1.472-3.09-.081-6.183-.064-9.275-.086" transform="translate(-194.013 -62.251)" fill="#7baaf0"/>
    <path id="Tracciato_1305" data-name="Tracciato 1305" d="M115.541,179.318c0,2.934.019,5.869-.007,8.8-.017,2.035-.872,2.975-2.922,2.991q-8.885.072-17.771,0c-2.028-.018-2.89-.978-2.9-3.024q-.03-8.8,0-17.605c.007-2.035.881-2.971,2.93-2.987q8.885-.068,17.771,0c2.038.017,2.873.961,2.889,3.019.023,2.934.006,5.868.006,8.8m-4.95.136c0-1.881-.053-3.765.02-5.644.042-1.078-.3-1.456-1.4-1.439-3.652.054-7.306.045-10.959,0-.967-.011-1.385.234-1.371,1.293.052,3.763.042,7.528.005,11.291-.009.915.265,1.276,1.224,1.266q5.645-.061,11.291,0c.985.011,1.227-.4,1.206-1.291-.043-1.826-.013-3.652-.012-5.48" transform="translate(-54.066 -98.488)" fill="#2f3380"/>
    <path id="Tracciato_1306" data-name="Tracciato 1306" d="M115.539,246.72c0,2.934.016,5.869-.005,8.8-.016,2.159-.864,3.025-3.018,3.032q-8.8.03-17.606,0c-2.058-.008-2.956-.89-2.964-2.925q-.036-8.886,0-17.772c.009-1.934.924-2.882,2.856-2.894q8.886-.055,17.772,0c2.048.01,2.936.926,2.956,2.958.028,2.934.007,5.869.007,8.8m-4.945,0c0-1.88-.025-3.761.012-5.641.015-.775-.088-1.206-1.049-1.194q-5.806.076-11.613,0c-.944-.012-1.068.386-1.062,1.178.03,3.815.037,7.632,0,11.447-.009.873.271,1.136,1.132,1.127,3.816-.038,7.632-.05,11.447.005,1.024.015,1.173-.423,1.152-1.283-.047-1.879-.014-3.76-.014-5.64" transform="translate(-54.065 -138.172)" fill="#2f3380"/>
    <path id="Tracciato_1307" data-name="Tracciato 1307" d="M267.063,192.51c0-1.383-.048-2.769.014-4.15s.689-1.79,1.922-1.27a1.461,1.461,0,0,0,1.229.035,4.583,4.583,0,0,1,4.554.629.949.949,0,0,0,1.364.033c3.613-2.346,7.585-.245,7.753,4.068.059,1.492.01,2.988.013,4.482,0,.943-.108,1.92-1.31,1.892-1.075-.024-1.219-.938-1.218-1.826,0-1.495.03-2.989-.014-4.482-.047-1.627-.854-2.553-2.183-2.61a2.372,2.372,0,0,0-2.478,2.531c-.069,1.491-.03,2.987-.016,4.481.009.938-.04,1.931-1.259,1.906-1.082-.023-1.194-.94-1.183-1.835.018-1.439.039-2.879-.007-4.316-.058-1.786-.971-2.8-2.409-2.772-1.388.028-2.189.974-2.232,2.733-.037,1.493-.017,2.987-.009,4.482,0,.865-.262,1.653-1.2,1.694-1.068.048-1.318-.823-1.331-1.719-.019-1.327,0-2.656,0-3.984" transform="translate(-157.057 -109.855)" fill="#2f3380"/>
    <path id="Tracciato_1308" data-name="Tracciato 1308" d="M237.345,260.85c.946,2.225,2.613,2.958,4.635,2.214.31-.114.589-.311.9-.425.6-.221,1.2-.314,1.589.376.4.712-.049,1.121-.542,1.529a5.765,5.765,0,1,1-5-10.136,5.533,5.533,0,0,1,6.626,3.831c.547,1.914.066,2.585-1.915,2.6-2.046.02-4.092,0-6.293,0m6.208-1.973c-1.453-2.687-4.483-3.111-5.894-1.081-.436.627-.6,1.1.47,1.086,1.739-.018,3.479,0,5.425,0" transform="translate(-137.99 -149.525)" fill="#2f3380"/>
    <path id="Tracciato_1309" data-name="Tracciato 1309" d="M241.929,192.663a5.573,5.573,0,0,1-5.527,5.63,5.707,5.707,0,0,1-5.431-5.784,5.491,5.491,0,1,1,10.957.153m-8.414-.183a2.966,2.966,0,0,0,2.951,3.281,3.032,3.032,0,0,0,3.031-3.229,3.091,3.091,0,0,0-2.9-3.222,3,3,0,0,0-3.084,3.171" transform="translate(-135.841 -109.828)" fill="#2f3380"/>
    <path id="Tracciato_1310" data-name="Tracciato 1310" d="M202.371,260.05c0-1.383-.04-2.768.013-4.149s.671-1.792,1.911-1.206a1.451,1.451,0,0,0,1.214.009c3.2-.965,6.065.79,6.39,4.045a51.046,51.046,0,0,1,.06,5.638c-.009.8-.35,1.438-1.278,1.4-.824-.036-1.133-.64-1.149-1.367-.035-1.6.008-3.209-.035-4.813-.047-1.718-.876-2.683-2.256-2.732-1.436-.052-2.342.952-2.4,2.762-.047,1.382-.016,2.767-.011,4.15,0,.921,0,1.921-1.222,1.971-1.3.054-1.235-.983-1.236-1.886q0-1.909,0-3.818" transform="translate(-119.012 -149.641)" fill="#2f3380"/>
    <path id="Tracciato_1311" data-name="Tracciato 1311" d="M205.211,198.308a5.926,5.926,0,0,1-5.585-3.942,5.63,5.63,0,0,1,2-6.347,5.787,5.787,0,0,1,6.812-.166c.686.457,1.09,1.01.641,1.786a1.166,1.166,0,0,1-1.727.382c-.243-.129-.484-.269-.736-.377a3.356,3.356,0,0,0-4.149,1.04,2.981,2.981,0,0,0-.054,3.689,3.428,3.428,0,0,0,4.126,1.162c.358-.14.676-.386,1.039-.507a1.178,1.178,0,0,1,1.56.568,1.152,1.152,0,0,1-.521,1.57,6.32,6.32,0,0,1-3.406,1.142" transform="translate(-117.228 -109.877)" fill="#2f3380"/>
    <path id="Tracciato_1312" data-name="Tracciato 1312" d="M267.444,253.8c0-.607,0-1.214,0-1.821.006-.863.206-1.787-1.14-1.907-.529-.047-.787-.608-.772-1.138s.335-1.087.837-1.1c1.326-.029,1.064-.923,1.074-1.7.006-.5.011-.994,0-1.491-.013-.837.367-1.449,1.2-1.5.97-.057,1.32.647,1.37,1.514.026.44.006.883.014,1.324.016.834-.219,1.637,1.085,1.959a1.1,1.1,0,0,1-.08,2.106c-1,.344-1.032.934-1.012,1.736.027,1.1.016,2.208,0,3.312-.009.766-.093,1.49.791,1.961.551.294.491.972.249,1.493a1.132,1.132,0,0,1-1.258.6,2.426,2.426,0,0,1-2.325-2.372c-.09-.985-.018-1.985-.018-2.978h-.024" transform="translate(-156.167 -143.001)" fill="#2f3380"/>
    <path id="Tracciato_1313" data-name="Tracciato 1313" d="M192.334,208.6a1.562,1.562,0,0,1-1.716,1.552,1.523,1.523,0,0,1-1.626-1.687,1.571,1.571,0,0,1,1.709-1.639,1.627,1.627,0,0,1,1.633,1.774" transform="translate(-111.151 -121.64)" fill="#2f3380"/>
    <path id="Tracciato_1314" data-name="Tracciato 1314" d="M192.332,276.092A1.582,1.582,0,0,1,190.6,277.7a1.661,1.661,0,1,1,.126-3.32,1.581,1.581,0,0,1,1.61,1.711" transform="translate(-111.149 -161.369)" fill="#2f3380"/>
    <path id="Tracciato_1315" data-name="Tracciato 1315" d="M126.453,123.342a3.507,3.507,0,0,1-3.4-3.559,3.524,3.524,0,1,1,3.4,3.559" transform="translate(-72.368 -68.427)" fill="#2f3380"/>
    <path id="Tracciato_1316" data-name="Tracciato 1316" d="M76.451,123.343a3.519,3.519,0,0,1-3.47-3.506,3.532,3.532,0,1,1,3.47,3.506" transform="translate(-42.922 -68.427)" fill="#2f3380"/>
    <path id="Tracciato_1317" data-name="Tracciato 1317" d="M101.347,123.336a3.5,3.5,0,0,1-3.313-3.638,3.546,3.546,0,0,1,3.615-3.355,3.609,3.609,0,0,1,3.427,3.573,3.564,3.564,0,0,1-3.729,3.42" transform="translate(-57.654 -68.424)" fill="#2f3380"/>
    <path id="Tracciato_1318" data-name="Tracciato 1318" d="M117.658,186.465c0,1.827-.03,3.654.012,5.48.021.888-.221,1.3-1.206,1.291q-5.645-.063-11.291,0c-.959.01-1.233-.351-1.224-1.266.037-3.763.047-7.528,0-11.291-.015-1.059.4-1.3,1.37-1.293,3.652.041,7.306.05,10.958,0,1.1-.016,1.446.362,1.4,1.44-.073,1.879-.02,3.763-.02,5.644" transform="translate(-61.132 -105.499)" fill="#f98f9d"/>
    <path id="Tracciato_1319" data-name="Tracciato 1319" d="M117.663,253.8c0,1.88-.032,3.761.014,5.64.021.86-.127,1.3-1.151,1.283-3.815-.055-7.631-.044-11.447-.005-.862.008-1.142-.255-1.132-1.127.04-3.815.034-7.632,0-11.447-.007-.793.117-1.19,1.062-1.178q5.806.075,11.612,0c.961-.012,1.065.419,1.049,1.194-.037,1.88-.012,3.76-.012,5.641" transform="translate(-61.134 -145.244)" fill="#fefefe"/>
    <path id="Tracciato_1320" data-name="Tracciato 1320" d="M247.4,262.137c-1.946,0-3.685-.013-5.425,0-1.074.011-.905-.459-.47-1.086,1.411-2.03,4.442-1.606,5.894,1.081" transform="translate(-141.839 -152.785)" fill="#f9f9fa"/>
    <path id="Tracciato_1321" data-name="Tracciato 1321" d="M237.147,196.141a3,3,0,0,1,3.084-3.171,3.091,3.091,0,0,1,2.9,3.222,3.032,3.032,0,0,1-3.031,3.229,2.966,2.966,0,0,1-2.951-3.281" transform="translate(-139.473 -113.49)" fill="#f9f9fa"/>
  </g>
</svg>
