<svg xmlns="http://www.w3.org/2000/svg" xmlns:xlink="http://www.w3.org/1999/xlink" width="90" height="111" viewBox="0 0 90 111">
  <defs>
    <clipPath id="clip-path">
      <rect id="Rettangolo_1553" data-name="Rettangolo 1553" width="81" height="46" transform="translate(0.078 -0.303)" fill="#fff" stroke="#a3a5c7" stroke-width="1"/>
    </clipPath>
  </defs>
  <g id="Raggruppa_1946" data-name="Raggruppa 1946" transform="translate(-601 -296)">
    <g id="Template_01" transform="translate(601 296)">
      <g id="Rettangolo_1552" data-name="Rettangolo 1552" transform="translate(0 0)" fill="#fff" stroke="#a3a5c7" stroke-width="1">
        <rect width="90" height="111" rx="5" stroke="none"/>
        <rect x="0.5" y="0.5" width="89" height="110" rx="4.5" fill="none"/>
      </g>
      <g id="Gruppo_di_maschere_7" data-name="Gruppo di maschere 7" transform="translate(4.921 12.303)" clip-path="url(#clip-path)">
        <g id="Image" transform="translate(13.014 0.504)">
          <rect id="Rettangolo_1577" data-name="Rettangolo 1577" width="54.863" height="45.101" transform="translate(0 0)" fill="#eaeaea" stroke="#c4c4c4" stroke-width="0.521"/>
          <path id="Tracciato_923" data-name="Tracciato 923" d="M.521.521,15.4,12.752" transform="translate(-0.289 -0.33)" fill="none" stroke="#c4c4c4" stroke-width="0.521"/>
          <path id="Tracciato_924" data-name="Tracciato 924" d="M44.807,44.807,59.685,57.038" transform="translate(-5.055 -12.128)" fill="none" stroke="#c4c4c4" stroke-width="0.521"/>
          <path id="Tracciato_925" data-name="Tracciato 925" d="M44.807,12.752,59.685.521" transform="translate(-5.055 -0.33)" fill="none" stroke="#c4c4c4" stroke-width="0.521"/>
          <path id="Tracciato_926" data-name="Tracciato 926" d="M.521,57.038,15.4,44.807" transform="translate(-0.289 -12.128)" fill="none" stroke="#c4c4c4" stroke-width="0.521"/>
          <path id="Tracciato_927" data-name="Tracciato 927" d="M22.924,26.905a1.6,1.6,0,0,1,1.758-1.376,1.6,1.6,0,0,1,1.758,1.376,1.6,1.6,0,0,1-1.758,1.376A1.6,1.6,0,0,1,22.924,26.905Z" transform="translate(-2.7 -6.992)" fill="#959595"/>
          <path id="Tracciato_928" data-name="Tracciato 928" d="M37.38,32.771H23.318V31.12l1.736-1.359a.635.635,0,0,1,.746,0l1.736,1.359,5.252-4.111a.635.635,0,0,1,.746,0l3.846,3.01Z" transform="translate(-2.742 -7.354)" fill="#959595"/>
        </g>
      </g>
      <text id="Lorem_ipsum_dolor_sit_amet_consectetur_adipiscing_elit._Vitae_adipiscing_sit_accumsan_egestas_tristique_ut_ut." data-name="Lorem ipsum dolor sit amet, consectetur adipiscing elit. Vitae adipiscing sit accumsan, egestas tristique ut ut." transform="translate(18 69)" fill="#43425d" font-size="5" font-family="SourceSansPro-Regular, Source Sans Pro"><tspan x="0" y="5">Lorem ipsum dolor sit </tspan><tspan x="0" y="11">amet, consectetur </tspan></text>
      <g id="Image-2" data-name="Image" transform="translate(17.935 85.523)">
        <rect id="Rettangolo_1577-2" data-name="Rettangolo 1577" width="13.68" height="11.246" transform="translate(0 0)" fill="#eaeaea" stroke="#c4c4c4" stroke-width="0.521"/>
        <path id="Tracciato_923-2" data-name="Tracciato 923" d="M.521.521l3.71,3.05" transform="translate(-0.463 -0.473)" fill="none" stroke="#c4c4c4" stroke-width="0.521"/>
        <path id="Tracciato_924-2" data-name="Tracciato 924" d="M44.807,44.807l3.71,3.05" transform="translate(-34.894 -36.658)" fill="none" stroke="#c4c4c4" stroke-width="0.521"/>
        <path id="Tracciato_925-2" data-name="Tracciato 925" d="M44.807,3.571l3.71-3.05" transform="translate(-34.894 -0.473)" fill="none" stroke="#c4c4c4" stroke-width="0.521"/>
        <path id="Tracciato_926-2" data-name="Tracciato 926" d="M.521,47.857l3.71-3.05" transform="translate(-0.463 -36.658)" fill="none" stroke="#c4c4c4" stroke-width="0.521"/>
        <path id="Tracciato_927-2" data-name="Tracciato 927" d="M22.924,25.873a.451.451,0,1,1,.438.343A.4.4,0,0,1,22.924,25.873Z" transform="translate(-17.881 -20.907)" fill="#959595"/>
        <path id="Tracciato_928-2" data-name="Tracciato 928" d="M26.825,28.355H23.318v-.412l.433-.339a.158.158,0,0,1,.186,0l.433.339,1.31-1.025a.158.158,0,0,1,.186,0l.959.751Z" transform="translate(-18.188 -22.017)" fill="#959595"/>
      </g>
      <g id="Image-3" data-name="Image" transform="translate(38.129 85.523)">
        <rect id="Rettangolo_1577-3" data-name="Rettangolo 1577" width="13.68" height="11.246" transform="translate(0 0)" fill="#eaeaea" stroke="#c4c4c4" stroke-width="0.521"/>
        <path id="Tracciato_923-3" data-name="Tracciato 923" d="M.521.521l3.71,3.05" transform="translate(-0.463 -0.473)" fill="none" stroke="#c4c4c4" stroke-width="0.521"/>
        <path id="Tracciato_924-3" data-name="Tracciato 924" d="M44.807,44.807l3.71,3.05" transform="translate(-34.894 -36.658)" fill="none" stroke="#c4c4c4" stroke-width="0.521"/>
        <path id="Tracciato_925-3" data-name="Tracciato 925" d="M44.807,3.571l3.71-3.05" transform="translate(-34.894 -0.473)" fill="none" stroke="#c4c4c4" stroke-width="0.521"/>
        <path id="Tracciato_926-3" data-name="Tracciato 926" d="M.521,47.857l3.71-3.05" transform="translate(-0.463 -36.658)" fill="none" stroke="#c4c4c4" stroke-width="0.521"/>
        <path id="Tracciato_927-3" data-name="Tracciato 927" d="M22.924,25.873a.451.451,0,1,1,.438.343A.4.4,0,0,1,22.924,25.873Z" transform="translate(-17.881 -20.907)" fill="#959595"/>
        <path id="Tracciato_928-3" data-name="Tracciato 928" d="M26.825,28.355H23.318v-.412l.433-.339a.158.158,0,0,1,.186,0l.433.339,1.31-1.025a.158.158,0,0,1,.186,0l.959.751Z" transform="translate(-18.188 -22.017)" fill="#959595"/>
      </g>
      <g id="Image-4" data-name="Image" transform="translate(58.323 85.523)">
        <rect id="Rettangolo_1577-4" data-name="Rettangolo 1577" width="13.68" height="11.246" transform="translate(0 0)" fill="#eaeaea" stroke="#c4c4c4" stroke-width="0.521"/>
        <path id="Tracciato_923-4" data-name="Tracciato 923" d="M.521.521l3.71,3.05" transform="translate(-0.463 -0.473)" fill="none" stroke="#c4c4c4" stroke-width="0.521"/>
        <path id="Tracciato_924-4" data-name="Tracciato 924" d="M44.807,44.807l3.71,3.05" transform="translate(-34.894 -36.658)" fill="none" stroke="#c4c4c4" stroke-width="0.521"/>
        <path id="Tracciato_925-4" data-name="Tracciato 925" d="M44.807,3.571l3.71-3.05" transform="translate(-34.894 -0.473)" fill="none" stroke="#c4c4c4" stroke-width="0.521"/>
        <path id="Tracciato_926-4" data-name="Tracciato 926" d="M.521,47.857l3.71-3.05" transform="translate(-0.463 -36.658)" fill="none" stroke="#c4c4c4" stroke-width="0.521"/>
        <path id="Tracciato_927-4" data-name="Tracciato 927" d="M22.924,25.873a.451.451,0,1,1,.438.343A.4.4,0,0,1,22.924,25.873Z" transform="translate(-17.881 -20.907)" fill="#959595"/>
        <path id="Tracciato_928-4" data-name="Tracciato 928" d="M26.825,28.355H23.318v-.412l.433-.339a.158.158,0,0,1,.186,0l.433.339,1.31-1.025a.158.158,0,0,1,.186,0l.959.751Z" transform="translate(-18.188 -22.017)" fill="#959595"/>
      </g>
      <text id="Your_title_goes_here" data-name="Your title goes here" transform="translate(18 64)" fill="#43425d" font-size="4" font-family="SourceSansPro-Bold, Source Sans Pro" font-weight="700"><tspan x="0" y="0">Your title goes here</tspan></text>
    </g>
    <circle id="Ellisse_122" data-name="Ellisse 122" cx="7" cy="7" r="7" transform="translate(674 299)" fill="#2f3380"/>
    <g id="Icon_Search" data-name="Icon Search" transform="translate(677.719 302.719)">
      <path id="icon_search-2" data-name="icon_search" d="M5.208,4.605a2.779,2.779,0,0,0,.574-1.712A2.879,2.879,0,0,0,2.912,0,2.914,2.914,0,0,0,0,2.894,2.914,2.914,0,0,0,2.912,5.787a2.734,2.734,0,0,0,1.722-.571L5.865,6.44a.4.4,0,0,0,.574,0,.392.392,0,0,0,0-.571Zm-2.3.326A2.059,2.059,0,0,1,.82,2.894,2.092,2.092,0,0,1,5,2.894,2.059,2.059,0,0,1,2.912,4.932Z" fill="#bcbccb"/>
    </g>
  </g>
</svg>
