<svg xmlns="http://www.w3.org/2000/svg" xmlns:xlink="http://www.w3.org/1999/xlink" width="16" height="16" viewBox="0 0 16 16">
  <defs>
    <clipPath id="clip-path">
      <rect id="Rettangolo_1804" data-name="Rettangolo 1804" width="16" height="16" transform="translate(1431 643)" fill="#4e505d" stroke="#707070" stroke-width="1"/>
    </clipPath>
  </defs>
  <g id="Gruppo_di_maschere_70" data-name="Gruppo di maschere 70" transform="translate(-1431 -643)" clip-path="url(#clip-path)">
    <g id="UCC_icon_event" transform="translate(1430.435 642.435)">
      <path id="Tracciato_1427" data-name="Tracciato 1427" d="M3.891,14.2l.788-1.077a5.743,5.743,0,0,1,3.078-9.9l.751-1.385A7.072,7.072,0,0,0,3.891,14.2Z" fill="#4e505d"/>
      <path id="Tracciato_1428" data-name="Tracciato 1428" d="M13.044,3.448,12.256,4.5A5.756,5.756,0,0,1,7.14,14.485l-1.077,1.02a7.2,7.2,0,0,0,2.5.462,7.063,7.063,0,0,0,4.48-12.521Z" fill="#4e505d"/>
      <path id="Tracciato_1429" data-name="Tracciato 1429" d="M12.545,8.026a.205.205,0,0,0,.039-.23.234.234,0,0,0-.193-.135h-.02L8.6,7.835l2.924-3.846.807-1.057L13.874.91a.2.2,0,0,0,0-.25.2.2,0,0,0-.174-.1.072.072,0,0,0-.059.02L9.584,1.909l-.1.039a.2.2,0,0,0-.115.1L8.757,3.159,5.2,9.68a.2.2,0,0,0,0,.21.2.2,0,0,0,.174.1h.02l2.789-.21L5.351,13.661l-.768,1.057-1.1,1.5a.209.209,0,0,0,.039.289c.039.039.076.039.115.059h.02a.254.254,0,0,0,.154-.059l1.424-1.365,1-.981Z" fill="#4e505d"/>
    </g>
  </g>
</svg>
