<svg xmlns="http://www.w3.org/2000/svg" xmlns:xlink="http://www.w3.org/1999/xlink" width="16" height="16" viewBox="0 0 16 16">
  <defs>
    <clipPath id="clip-path">
      <rect id="Rettangolo_1800" data-name="Rettangolo 1800" width="16" height="16" transform="translate(1412 363)" fill="#4e505d" stroke="#707070" stroke-width="1"/>
    </clipPath>
  </defs>
  <g id="Gruppo_di_maschere_65" data-name="Gruppo di maschere 65" transform="translate(-1412 -363)" clip-path="url(#clip-path)">
    <g id="UCC_icon_withdrawal" transform="translate(1411.569 362.574)">
      <path id="Tracciato_1388" data-name="Tracciato 1388" d="M13.706,8.987c.019,0,.019,0,.037.019C13.724,9.006,13.724,8.987,13.706,8.987Z" fill="#4e505d"/>
      <path id="Tracciato_1389" data-name="Tracciato 1389" d="M13.65,8.987Z" fill="#4e505d"/>
      <path id="Tracciato_1390" data-name="Tracciato 1390" d="M13.537,9.006h0Z" fill="#4e505d"/>
      <path id="Tracciato_1391" data-name="Tracciato 1391" d="M13.593,8.987h0Z" fill="#4e505d"/>
      <path id="Tracciato_1392" data-name="Tracciato 1392" d="M11.141,12.47a.946.946,0,0,1-.655-1.685l1.123-1.03,1.311-1.2a1.074,1.074,0,0,1,.73-.318,1.053,1.053,0,0,1,.6.206V8.426a6.9,6.9,0,1,0-3.127,5.786l.169-1.741Zm-1.76-1.985a1.684,1.684,0,0,1-1.517,1.2c-.112.019-.15.056-.15.169v.58q0,.14-.112.112H7.134c-.094,0-.112-.037-.112-.131v-.562c0-.112-.019-.169-.15-.187a2.042,2.042,0,0,1-1.1-.487,1.745,1.745,0,0,1-.58-1.442c0-.037.075-.094.112-.094H6.31a.1.1,0,0,1,.112.112v.112a.846.846,0,0,0,.487.768A.99.99,0,0,0,7.9,10.6.828.828,0,0,0,8,9.418,1.631,1.631,0,0,0,7.3,9.006a6.12,6.12,0,0,1-1.217-.6,1.8,1.8,0,0,1-.318-2.49,1.918,1.918,0,0,1,1.217-.655c.131-.019.15-.075.15-.187V4.438q0-.14.112-.112h.431c.094,0,.131.037.131.131v.693a.131.131,0,0,0,.112.15A1.817,1.817,0,0,1,9.437,7.134c0,.112-.037.169-.169.169H8.332c-.094,0-.131-.037-.15-.131a4.894,4.894,0,0,0-.112-.506.685.685,0,0,0-.843-.412.648.648,0,0,0-.543.637.792.792,0,0,0,.412.824A5.546,5.546,0,0,0,7.677,8c.318.169.655.318.974.506A1.514,1.514,0,0,1,9.381,10.485Z" fill="#4e505d"/>
      <path id="Tracciato_1393" data-name="Tracciato 1393" d="M13.481,9.044l.019-.019A.018.018,0,0,1,13.481,9.044Z" fill="#4e505d"/>
      <path id="Tracciato_1394" data-name="Tracciato 1394" d="M13.762,9.006a.065.065,0,0,1,.037.019C13.781,9.025,13.781,9.025,13.762,9.006Z" fill="#4e505d"/>
      <path id="Tracciato_1395" data-name="Tracciato 1395" d="M13.818,9.044l.056.056Z" fill="#4e505d"/>
      <path id="Tracciato_1396" data-name="Tracciato 1396" d="M13.8,9.044Z" fill="#4e505d"/>
      <path id="Tracciato_1397" data-name="Tracciato 1397" d="M13.743,9.006h0Z" fill="#4e505d"/>
      <path id="Tracciato_1398" data-name="Tracciato 1398" d="M13.425,9.1l.056-.056Z" fill="#4e505d"/>
      <path id="Tracciato_1399" data-name="Tracciato 1399" d="M16.308,11.328,14.193,9.381c-.094-.094-.206-.187-.3-.281l-.056-.056a.018.018,0,0,1-.019-.019.058.058,0,0,0-.037-.019h-.019c-.019,0-.019-.019-.037-.019h-.112c-.019,0-.019,0-.037.019h-.019c-.019,0-.019.019-.037.019a.018.018,0,0,0-.019.019l-.056.056c-.805.749-1.61,1.479-2.415,2.228-.075.075-.15.15-.112.262s.15.131.262.131H11.8c.281,0,.337.075.318.356-.056.506-.094,1.011-.15,1.5s-.094.974-.15,1.46c-.019.225.056.3.281.3h3.2c.206,0,.281-.094.262-.281-.094-1.011-.206-2.022-.3-3.033-.019-.187.056-.281.243-.281h.749c.019,0,.019,0,.037-.019.019,0,.019,0,.037-.019.019,0,.019-.019.037-.037a.018.018,0,0,0,.019-.019.1.1,0,0,0,.037-.075C16.458,11.459,16.383,11.4,16.308,11.328Z" fill="#4e505d"/>
      <path id="Tracciato_1400" data-name="Tracciato 1400" d="M13.5,9.044c.019,0,.019-.019.037-.019A.058.058,0,0,0,13.5,9.044Z" fill="#4e505d"/>
      <path id="Tracciato_1401" data-name="Tracciato 1401" d="M13.687,8.987h0Z" fill="#4e505d"/>
      <path id="Tracciato_1402" data-name="Tracciato 1402" d="M13.556,9.006c.019,0,.019-.019.037-.019A.065.065,0,0,1,13.556,9.006Z" fill="#4e505d"/>
      <path id="Tracciato_1403" data-name="Tracciato 1403" d="M13.612,8.987h0Z" fill="#4e505d"/>
    </g>
  </g>
</svg>
